<svg width="43" height="44" viewBox="0 0 43 44" fill="none" xmlns="http://www.w3.org/2000/svg">
<path fill-rule="evenodd" clip-rule="evenodd" d="M12.6361 0.629C14.9288 0.523455 15.6598 0.5 21.5 0.5C27.3402 0.5 28.0712 0.525409 30.3619 0.629C32.6526 0.732591 34.2163 1.09809 35.5845 1.62777C37.0171 2.16918 38.3169 3.0155 39.3919 4.11005C40.4865 5.18309 41.3308 6.48091 41.8703 7.91555C42.4019 9.28373 42.7655 10.8474 42.871 13.1342C42.9765 15.4308 43 16.1618 43 22C43 27.8402 42.9746 28.5712 42.871 30.8639C42.7674 33.1507 42.4019 34.7143 41.8703 36.0825C41.3308 37.5173 40.4851 38.8173 39.3919 39.8919C38.3169 40.9865 37.0171 41.8308 35.5845 42.3703C34.2163 42.9019 32.6526 43.2655 30.3658 43.371C28.0712 43.4765 27.3402 43.5 21.5 43.5C15.6598 43.5 14.9288 43.4746 12.6361 43.371C10.3493 43.2674 8.78568 42.9019 7.4175 42.3703C5.98271 41.8307 4.68274 40.985 3.60809 39.8919C2.51429 38.8182 1.66784 37.5189 1.12777 36.0845C0.598091 34.7163 0.234545 33.1526 0.129 30.8658C0.0234545 28.5692 0 27.8382 0 22C0 16.1598 0.0254091 15.4288 0.129 13.1381C0.232591 10.8474 0.598091 9.28373 1.12777 7.91555C1.66864 6.48107 2.51573 5.18175 3.61005 4.10809C4.68317 3.01452 5.98183 2.16809 7.41555 1.62777C8.78373 1.09809 10.3474 0.734545 12.6342 0.629H12.6361ZM30.188 4.499C27.9207 4.39541 27.2405 4.37391 21.5 4.37391C15.7595 4.37391 15.0793 4.39541 12.812 4.499C10.7148 4.59477 9.57727 4.94464 8.81891 5.23977C7.81623 5.63068 7.09891 6.09391 6.34641 6.84641C5.63309 7.54037 5.08413 8.38519 4.73977 9.31891C4.44464 10.0773 4.09477 11.2148 3.999 13.312C3.89541 15.5793 3.87391 16.2595 3.87391 22C3.87391 27.7405 3.89541 28.4207 3.999 30.688C4.09477 32.7852 4.44464 33.9227 4.73977 34.6811C5.08377 35.6134 5.633 36.4597 6.34641 37.1536C7.04027 37.867 7.88659 38.4162 8.81891 38.7602C9.57727 39.0554 10.7148 39.4052 12.812 39.501C15.0793 39.6046 15.7575 39.6261 21.5 39.6261C27.2425 39.6261 27.9207 39.6046 30.188 39.501C32.2852 39.4052 33.4227 39.0554 34.1811 38.7602C35.1838 38.3693 35.9011 37.9061 36.6536 37.1536C37.367 36.4597 37.9162 35.6134 38.2602 34.6811C38.5554 33.9227 38.9052 32.7852 39.001 30.688C39.1046 28.4207 39.1261 27.7405 39.1261 22C39.1261 16.2595 39.1046 15.5793 39.001 13.312C38.9052 11.2148 38.5554 10.0773 38.2602 9.31891C37.8693 8.31623 37.4061 7.59891 36.6536 6.84641C35.9596 6.13314 35.1148 5.58418 34.1811 5.23977C33.4227 4.94464 32.2852 4.59477 30.188 4.499ZM18.7539 28.6279C20.2875 29.2663 21.9952 29.3524 23.5854 28.8716C25.1755 28.3908 26.5494 27.3729 27.4723 25.9917C28.3953 24.6104 28.8101 22.9516 28.6459 21.2985C28.4817 19.6454 27.7487 18.1006 26.572 16.928C25.822 16.1783 24.915 15.6044 23.9165 15.2473C22.9179 14.8903 21.8527 14.7591 20.7973 14.8632C19.742 14.9673 18.7229 15.3041 17.8133 15.8493C16.9038 16.3945 16.1265 17.1346 15.5373 18.0163C14.9481 18.8981 14.5617 19.8994 14.406 20.9484C14.2503 21.9973 14.3291 23.0678 14.6367 24.0826C14.9443 25.0974 15.4731 26.0315 16.185 26.8174C16.897 27.6034 17.7743 28.2217 18.7539 28.6279ZM13.6857 14.1857C14.7119 13.1595 15.9302 12.3455 17.2709 11.7902C18.6117 11.2348 20.0488 10.9489 21.5 10.9489C22.9512 10.9489 24.3883 11.2348 25.7291 11.7902C27.0698 12.3455 28.2881 13.1595 29.3143 14.1857C30.3405 15.2119 31.1545 16.4302 31.7098 17.7709C32.2652 19.1117 32.5511 20.5488 32.5511 22C32.5511 23.4512 32.2652 24.8883 31.7098 26.2291C31.1545 27.5698 30.3405 28.7881 29.3143 29.8143C27.2418 31.8867 24.4309 33.0511 21.5 33.0511C18.5691 33.0511 15.7582 31.8867 13.6857 29.8143C11.6133 27.7418 10.4489 24.9309 10.4489 22C10.4489 19.0691 11.6133 16.2582 13.6857 14.1857ZM35.002 12.5947C35.2563 12.3548 35.4599 12.0664 35.6007 11.7464C35.7415 11.4264 35.8167 11.0815 35.8218 10.7319C35.8269 10.3824 35.7618 10.0353 35.6304 9.7114C35.4989 9.38746 35.3038 9.09318 35.0567 8.84599C34.8095 8.59879 34.5152 8.40371 34.1912 8.27228C33.8673 8.14086 33.5203 8.07577 33.1707 8.08087C32.8212 8.08596 32.4762 8.16114 32.1562 8.30195C31.8363 8.44276 31.5478 8.64634 31.3079 8.90064C30.8414 9.39519 30.586 10.0521 30.5959 10.7319C30.6058 11.4117 30.8802 12.0609 31.361 12.5416C31.8417 13.0224 32.4909 13.2969 33.1707 13.3068C33.8505 13.3167 34.5074 13.0613 35.002 12.5947Z" fill="#492E18"/>
</svg>
