<svg width="64" height="64" viewBox="0 0 64 64" fill="none" xmlns="http://www.w3.org/2000/svg">
<path fill-rule="evenodd" clip-rule="evenodd" d="M18.8073 0.192C22.2196 0.034909 23.3076 0 32 0C40.6924 0 41.7804 0.0378181 45.1898 0.192C48.5993 0.346182 50.9265 0.890182 52.9629 1.67855C55.0953 2.48436 57.0298 3.744 58.6298 5.37309C60.2589 6.97018 61.5156 8.90182 62.3185 11.0371C63.1098 13.0735 63.6509 15.4007 63.808 18.8044C63.9651 22.2225 64 23.3105 64 32C64 40.6924 63.9622 41.7804 63.808 45.1927C63.6538 48.5964 63.1098 50.9236 62.3185 52.96C61.5156 55.0955 60.2568 57.0304 58.6298 58.6298C57.0298 60.2589 55.0953 61.5156 52.9629 62.3185C50.9265 63.1098 48.5993 63.6509 45.1956 63.808C41.7804 63.9651 40.6924 64 32 64C23.3076 64 22.2196 63.9622 18.8073 63.808C15.4036 63.6538 13.0764 63.1098 11.04 62.3185C8.9045 61.5155 6.96966 60.2567 5.37018 58.6298C3.7422 57.0318 2.48237 55.0978 1.67855 52.9629C0.890182 50.9265 0.349091 48.5993 0.192 45.1956C0.034909 41.7775 0 40.6895 0 32C0 23.3076 0.0378181 22.2196 0.192 18.8102C0.346182 15.4007 0.890182 13.0735 1.67855 11.0371C2.48356 8.90206 3.74435 6.96818 5.37309 5.37018C6.9703 3.74255 8.90319 2.48274 11.0371 1.67855C13.0735 0.890182 15.4007 0.349091 18.8044 0.192H18.8073ZM44.9309 5.952C41.5564 5.79782 40.544 5.76582 32 5.76582C23.456 5.76582 22.4436 5.79782 19.0691 5.952C15.9476 6.09455 14.2545 6.61527 13.1258 7.05455C11.6335 7.63636 10.5658 8.32582 9.44582 9.44582C8.38413 10.4787 7.56707 11.7361 7.05455 13.1258C6.61527 14.2545 6.09455 15.9476 5.952 19.0691C5.79782 22.4436 5.76582 23.456 5.76582 32C5.76582 40.544 5.79782 41.5564 5.952 44.9309C6.09455 48.0524 6.61527 49.7455 7.05455 50.8742C7.56655 52.2618 8.384 53.5215 9.44582 54.5542C10.4785 55.616 11.7382 56.4335 13.1258 56.9455C14.2545 57.3847 15.9476 57.9055 19.0691 58.048C22.4436 58.2022 23.4531 58.2342 32 58.2342C40.5469 58.2342 41.5564 58.2022 44.9309 58.048C48.0524 57.9055 49.7455 57.3847 50.8742 56.9455C52.3666 56.3636 53.4342 55.6742 54.5542 54.5542C55.616 53.5215 56.4335 52.2618 56.9455 50.8742C57.3847 49.7455 57.9055 48.0524 58.048 44.9309C58.2022 41.5564 58.2342 40.544 58.2342 32C58.2342 23.456 58.2022 22.4436 58.048 19.0691C57.9055 15.9476 57.3847 14.2545 56.9455 13.1258C56.3636 11.6335 55.6742 10.5658 54.5542 9.44582C53.5212 8.38421 52.2639 7.56716 50.8742 7.05455C49.7455 6.61527 48.0524 6.09455 44.9309 5.952ZM27.9127 41.8647C30.1954 42.8149 32.7371 42.9432 35.1038 42.2276C37.4705 41.5119 39.5153 39.9968 40.889 37.9411C42.2628 35.8853 42.8802 33.4164 42.6358 30.9559C42.3914 28.4955 41.3004 26.1963 39.5491 24.4509C38.4327 23.3352 37.0828 22.4809 35.5966 21.9495C34.1104 21.4181 32.5249 21.2229 30.9542 21.3778C29.3835 21.5327 27.8666 22.034 26.5129 22.8455C25.1591 23.657 24.0022 24.7585 23.1252 26.0708C22.2483 27.3832 21.6733 28.8736 21.4415 30.4348C21.2097 31.996 21.327 33.5892 21.7848 35.0997C22.2427 36.6102 23.0298 38.0003 24.0894 39.1701C25.149 40.3399 26.4548 41.2602 27.9127 41.8647ZM20.3695 20.3695C21.8968 18.8421 23.71 17.6306 25.7056 16.804C27.7012 15.9774 29.84 15.5519 32 15.5519C34.16 15.5519 36.2988 15.9774 38.2944 16.804C40.29 17.6306 42.1032 18.8421 43.6305 20.3695C45.1579 21.8968 46.3694 23.71 47.196 25.7056C48.0226 27.7012 48.4481 29.84 48.4481 32C48.4481 34.16 48.0226 36.2988 47.196 38.2944C46.3694 40.29 45.1579 42.1032 43.6305 43.6305C40.5459 46.7152 36.3623 48.4481 32 48.4481C27.6377 48.4481 23.4541 46.7152 20.3695 43.6305C17.2848 40.5459 15.5519 36.3623 15.5519 32C15.5519 27.6377 17.2848 23.4541 20.3695 20.3695ZM52.096 18.0015C52.4745 17.6444 52.7775 17.2151 52.9871 16.7388C53.1966 16.2626 53.3085 15.7491 53.3161 15.2289C53.3237 14.7086 53.2268 14.1921 53.0312 13.71C52.8356 13.2278 52.5453 12.7898 52.1773 12.4219C51.8094 12.054 51.3714 11.7637 50.8893 11.5681C50.4071 11.3724 49.8906 11.2756 49.3704 11.2832C48.8501 11.2907 48.3367 11.4026 47.8604 11.6122C47.3842 11.8218 46.9549 12.1248 46.5978 12.5033C45.9035 13.2394 45.5233 14.2171 45.538 15.2289C45.5528 16.2407 45.9613 17.2069 46.6768 17.9225C47.3924 18.638 48.3586 19.0465 49.3704 19.0612C50.3822 19.076 51.3599 18.6958 52.096 18.0015Z" fill="#FFE6D1" fill-opacity="0.8"/>
</svg>
