<svg width="144" height="144" viewBox="0 0 144 144" fill="none" xmlns="http://www.w3.org/2000/svg">
<g filter="url(#filter0_bd_507_235)">
<path d="M124 67C124 98.4802 98.4802 124 67 124C35.5198 124 10 98.4802 10 67C10 35.5198 35.5198 10 67 10C98.4802 10 124 35.5198 124 67Z" fill="black" fill-opacity="0.1" shape-rendering="crispEdges"/>
<path d="M123.5 67C123.5 98.2041 98.2041 123.5 67 123.5C35.7959 123.5 10.5 98.2041 10.5 67C10.5 35.7959 35.7959 10.5 67 10.5C98.2041 10.5 123.5 35.7959 123.5 67Z" stroke="url(#paint0_linear_507_235)" shape-rendering="crispEdges"/>
</g>
<line x1="37" y1="67" x2="97" y2="67" stroke="#FFE6D1" stroke-width="2"/>
<defs>
<filter id="filter0_bd_507_235" x="0" y="0" width="144" height="144" filterUnits="userSpaceOnUse" color-interpolation-filters="sRGB">
<feFlood flood-opacity="0" result="BackgroundImageFix"/>
<feGaussianBlur in="BackgroundImageFix" stdDeviation="4"/>
<feComposite in2="SourceAlpha" operator="in" result="effect1_backgroundBlur_507_235"/>
<feColorMatrix in="SourceAlpha" type="matrix" values="0 0 0 0 0 0 0 0 0 0 0 0 0 0 0 0 0 0 127 0" result="hardAlpha"/>
<feOffset dx="5" dy="5"/>
<feGaussianBlur stdDeviation="7.5"/>
<feComposite in2="hardAlpha" operator="out"/>
<feColorMatrix type="matrix" values="0 0 0 0 0 0 0 0 0 0 0 0 0 0 0 0 0 0 0.11 0"/>
<feBlend mode="normal" in2="effect1_backgroundBlur_507_235" result="effect2_dropShadow_507_235"/>
<feBlend mode="normal" in="SourceGraphic" in2="effect2_dropShadow_507_235" result="shape"/>
</filter>
<linearGradient id="paint0_linear_507_235" x1="67" y1="9.99999" x2="124" y2="142.5" gradientUnits="userSpaceOnUse">
<stop stop-color="#FFE6D1"/>
<stop offset="1" stop-color="#FFE6D1" stop-opacity="0"/>
</linearGradient>
</defs>
</svg>
